<svg width="682" height="137" viewBox="0 0 682 137" fill="none" xmlns="http://www.w3.org/2000/svg">
<g clip-path="url(#clip0_1_1507)">
<path d="M161.161 69.1184C161.161 41.9076 177.743 23.8276 202.599 23.8276C227.455 23.8276 244.037 42.0531 244.037 69.1184C244.037 96.1837 227.455 113.645 202.599 113.645C177.743 113.645 161.161 95.8199 161.161 69.1184ZM202.599 104.369C221.113 104.369 232.994 90.4724 232.994 69.082C232.994 47.6917 220.968 33.0313 202.599 33.0313C184.231 33.0313 172.204 47.1824 172.204 69.082C172.204 90.9816 184.121 104.369 202.599 104.369Z" fill="#080029"/>
<path d="M257.704 136.018V49.8743C257.704 49.2559 258.069 48.8557 258.579 48.8557H266.67C267.289 48.8557 267.69 49.2195 267.69 49.8743V60.7514H268.055C272.61 52.9301 281.248 48.2373 290.87 48.2373C307.962 48.2373 319.115 61.1515 319.115 80.8685C319.115 100.585 307.962 113.645 290.87 113.645C281.503 113.645 273.121 108.952 268.565 100.876H268.055V136.018C268.055 136.636 267.69 137.036 267.18 137.036H258.579C258.069 137.036 257.704 136.673 257.704 136.018ZM288.1 105.024C300.528 105.024 308.509 95.6744 308.509 80.8685C308.509 66.0626 300.637 56.8589 288.1 56.8589C275.563 56.8589 267.69 66.2081 267.69 80.8685C267.69 95.5289 275.672 105.024 288.1 105.024Z" fill="#080029"/>
<path d="M328.408 80.9776C328.408 61.006 340.69 48.2373 359.714 48.2373C377.463 48.2373 388.215 60.6422 388.215 80.9776V83.4877C388.215 84.1061 387.85 84.5063 387.194 84.5063H339.159C339.925 97.275 347.25 104.987 359.678 104.987C369.044 104.987 375.386 100.949 377.536 94.4739C377.682 93.8555 378.046 93.6008 378.666 93.6008H386.757C387.522 93.6008 387.887 93.9646 387.777 94.4739C385.226 105.715 374.985 113.572 359.641 113.572C340.508 113.572 328.335 100.804 328.335 80.9412L328.408 80.9776ZM378.046 76.685C377.427 64.1709 370.575 56.8225 359.678 56.8225C347.505 56.8225 340.18 64.0254 339.159 76.685H378.046Z" fill="#080029"/>
<path d="M400.862 111.972V62.8979C400.862 53.8034 405.782 48.856 414.929 48.856H434.683C435.302 48.856 435.703 49.2197 435.703 49.8745V56.8228C435.703 57.4412 435.339 57.8413 434.683 57.8413H411.358V111.972C411.358 112.59 410.993 112.991 410.337 112.991H401.846C401.226 112.991 400.825 112.627 400.825 111.972H400.862Z" fill="#080029"/>
<path d="M442.919 80.9776C442.919 61.1152 453.962 48.2373 471.164 48.2373C480.53 48.2373 488.767 52.9301 493.468 61.006H493.869V49.8743C493.869 49.2559 494.234 48.8557 494.89 48.8557H503.382C504.001 48.8557 504.402 49.2195 504.402 49.8743V104.623H512.128C512.748 104.623 513.149 104.987 513.149 105.496V111.935C513.149 112.554 512.785 112.954 512.128 112.954H503.272C497.332 112.954 494.27 110.298 494.27 105.242V101.058H493.906C489.46 108.916 480.858 113.572 471.237 113.572C453.998 113.572 442.992 100.658 442.992 80.9412L442.919 80.9776ZM473.825 105.024C486.362 105.024 494.234 95.6744 494.234 81.014C494.234 66.3536 486.252 56.8589 473.825 56.8589C461.397 56.8589 453.561 66.2081 453.561 81.014C453.561 95.8199 461.433 105.024 473.825 105.024Z" fill="#080029"/>
<path d="M522.88 23.8277C522.88 23.2092 523.281 22.8091 523.9 22.8091H535.053C535.672 22.8091 536.073 23.1729 536.073 23.8277V34.9594C536.073 35.4687 535.709 35.8325 535.053 35.8325H523.9C523.281 35.8325 522.88 35.4687 522.88 34.9594V23.8277ZM524.155 111.972V49.8744C524.155 49.256 524.52 48.8558 525.03 48.8558H533.631C534.141 48.8558 534.506 49.2196 534.506 49.8744V111.972C534.506 112.59 534.141 112.99 533.631 112.99H525.03C524.52 112.99 524.155 112.627 524.155 111.972Z" fill="#080029"/>
<path d="M547.59 80.9777C547.59 61.1153 558.742 48.2374 575.835 48.2374C585.201 48.2374 593.584 52.9302 598.139 61.0061H598.65V22.9546C598.65 22.3362 599.014 21.936 599.524 21.936H608.125C608.636 21.936 609 22.2998 609 22.9546V111.972C609 112.59 608.636 112.99 608.125 112.99H600.035C599.415 112.99 599.014 112.627 599.014 111.972V101.095H598.65C594.094 108.952 585.456 113.609 575.835 113.609C558.742 113.609 547.59 100.695 547.59 80.9777ZM578.605 105.024C591.142 105.024 599.014 95.6745 599.014 81.0141C599.014 66.3537 591.033 56.859 578.605 56.859C566.177 56.859 558.195 66.2082 558.195 81.0141C558.195 95.82 566.031 105.024 578.605 105.024Z" fill="#080029"/>
<path d="M622.193 80.9776C622.193 61.006 634.475 48.2373 653.499 48.2373C671.248 48.2373 682 60.6422 682 80.9776V83.4877C682 84.1061 681.635 84.5063 680.979 84.5063H632.944C633.71 97.275 641.035 104.987 653.463 104.987C662.829 104.987 669.171 100.949 671.321 94.4739C671.467 93.8555 671.831 93.6008 672.451 93.6008H680.542C681.307 93.6008 681.672 93.9646 681.562 94.4739C679.011 105.715 668.77 113.572 653.427 113.572C634.293 113.572 622.12 100.804 622.12 80.9412L622.193 80.9776ZM671.868 76.685C671.248 64.1709 664.397 56.8225 653.499 56.8225C641.327 56.8225 634.001 64.0254 632.981 76.685H671.868Z" fill="#080029"/>
<path d="M48.8003 0.145512C55.2511 6.40255 61.8477 12.8415 68.5172 19.3168C74.9315 12.9142 81.4917 6.36617 87.8696 0C94.4662 6.51168 100.99 12.9506 107.55 19.3895C88.5256 39.4703 52.2626 42.526 29.2656 19.5351C35.8258 13.0234 42.3859 6.51168 48.8003 0.145512Z" fill="#080029"/>
<path d="M68.6628 117.683C61.884 124.231 55.2874 130.634 48.7273 137C42.3129 130.634 35.7528 124.086 29.1926 117.574C52.1896 94.4378 88.5619 97.6391 107.623 117.756C101.099 124.159 94.539 130.598 88.0153 137C81.6009 130.634 75.0408 124.086 68.6264 117.683H68.6628Z" fill="#080029"/>
<path d="M0.145781 88.0715L19.3524 68.3909L0 49.1105L19.4253 29.4663C39.5431 48.4557 42.6045 84.6519 19.5711 107.607L0.145781 88.0715Z" fill="#080029"/>
<path d="M136.56 48.965L117.354 68.6455L136.706 87.9623L117.281 107.607C97.163 88.6171 94.1016 52.4209 117.135 29.4663L136.56 48.965Z" fill="#080029"/>
</g>
<defs>
<clipPath id="clip0_1_1507">
<rect width="682" height="137" fill="white"/>
</clipPath>
</defs>
</svg>
