<svg width="137" height="137" viewBox="0 0 137 137" fill="none" xmlns="http://www.w3.org/2000/svg">
<path d="M48.8003 0.145512C55.2511 6.40255 61.8477 12.8415 68.5172 19.3168C74.9315 12.9142 81.4917 6.36617 87.8696 0C94.4662 6.51168 100.99 12.9506 107.55 19.3895C88.5256 39.4703 52.2626 42.526 29.2656 19.5351C35.8258 13.0234 42.3859 6.51168 48.8003 0.145512Z" fill="white"/>
<path d="M68.6628 117.683C61.884 124.231 55.2874 130.634 48.7273 137C42.3129 130.634 35.7528 124.086 29.1926 117.574C52.1896 94.4376 88.5619 97.6388 107.623 117.756C101.099 124.158 94.539 130.597 88.0153 137C81.6009 130.634 75.0408 124.086 68.6264 117.683H68.6628Z" fill="white"/>
<path d="M0.145781 88.0715L19.3524 68.3909L0 49.1105L19.4253 29.4663C39.5431 48.4557 42.6045 84.6519 19.5711 107.607L0.145781 88.0715Z" fill="white"/>
<path d="M136.56 48.965L117.354 68.6455L136.706 87.9623L117.281 107.607C97.163 88.6171 94.1016 52.4209 117.135 29.4663L136.56 48.965Z" fill="white"/>
</svg>
